<svg xmlns="http://www.w3.org/2000/svg" xmlns:xlink="http://www.w3.org/1999/xlink" xmlns:lucid="lucid" width="1220" height="579.83"><g transform="translate(-160 -151.16666666666669)" lucid:page-tab-id="0_0"><path d="M930 496a6 6 0 0 1 6-6h228a6 6 0 0 1 6 6v48a6 6 0 0 1-6 6H936a6 6 0 0 1-6-6z" fill="none"/><use xlink:href="#a" transform="matrix(1,0,0,1,930,490) translate(91.69753086419753 34.44444444444444)"/><path d="M180 326a6 6 0 0 1 6-6h228a6 6 0 0 1 6 6v48a6 6 0 0 1-6 6H186a6 6 0 0 1-6-6z" stroke="#5e5e5e" stroke-width="3" fill="#fff"/><use xlink:href="#b" transform="matrix(1,0,0,1,185,325) translate(9.18518518518519 30.708333333333332)"/><use xlink:href="#c" transform="matrix(1,0,0,1,185,325) translate(130.59259259259258 30.708333333333332)"/><path d="M180 446a6 6 0 0 1 6-6h228a6 6 0 0 1 6 6v48a6 6 0 0 1-6 6H186a6 6 0 0 1-6-6z" stroke="#5e5e5e" stroke-width="3" fill="#fff"/><use xlink:href="#d" transform="matrix(1,0,0,1,185,445) translate(55.148148148148174 30.708333333333325)"/><use xlink:href="#e" transform="matrix(1,0,0,1,185,445) translate(126.03703703703704 30.708333333333325)"/><path d="M580 346a6 6 0 0 1 6-6h268a6 6 0 0 1 6 6v128a6 6 0 0 1-6 6H586a6 6 0 0 1-6-6z" stroke="#5e5e5e" stroke-width="3" fill="#fff"/><use xlink:href="#f" transform="matrix(1,0,0,1,585,345) translate(30.66666666666667 70.08333333333333)"/><use xlink:href="#g" transform="matrix(1,0,0,1,585,345) translate(169.7037037037037 70.08333333333333)"/><use xlink:href="#h" transform="matrix(1,0,0,1,585,345) translate(202.2962962962963 70.08333333333333)"/><path d="M422.5 350H494a6 6 0 0 1 6 6v26a6 6 0 0 0 6 6h54" stroke="#5e5e5e" stroke-width="2" fill="none"/><path d="M422.53 351h-1.03v-2h1.03z" stroke="#5e5e5e" stroke-width=".05" fill="#5e5e5e"/><path d="M575.26 388L561 392.63v-9.26z" stroke="#5e5e5e" stroke-width="2" fill="#5e5e5e"/><path d="M422.5 470H494a6 6 0 0 0 6-6v-14a6 6 0 0 1 6-6h54" stroke="#5e5e5e" stroke-width="2" fill="none"/><path d="M422.53 471h-1.03v-2h1.03z" stroke="#5e5e5e" stroke-width=".05" fill="#5e5e5e"/><path d="M575.26 444L561 448.63v-9.26z" stroke="#5e5e5e" stroke-width="2" fill="#5e5e5e"/><path d="M717.77 485.57a2.4 2.4 0 0 1 4.46 0l6.84 17.1a1.7 1.7 0 0 1-1.57 2.33 2.5 2.5 0 0 0-2.5 2.5v25a2.5 2.5 0 0 0 2.5 2.5 1.7 1.7 0 0 1 1.57 2.32l-6.84 17.1a2.4 2.4 0 0 1-4.46 0l-6.84-17.1a1.7 1.7 0 0 1 1.57-2.32 2.5 2.5 0 0 0 2.5-2.5v-25a2.5 2.5 0 0 0-2.5-2.5 1.7 1.7 0 0 1-1.57-2.32zM620 566a6 6 0 0 1 6-6h188a6 6 0 0 1 6 6v108a6 6 0 0 1-6 6H626a6 6 0 0 1-6-6z" stroke="#5e5e5e" stroke-width="3" fill="#fff"/><use xlink:href="#i" transform="matrix(1,0,0,1,625,565) translate(5.111111111111114 59.14583333333333)"/><use xlink:href="#j" transform="matrix(1,0,0,1,625,565) translate(90.22222222222221 59.14583333333333)"/><path d="M990 356a6 6 0 0 1 6-6h198a6 6 0 0 1 6 6v98a6 6 0 0 1-6 6H996a6 6 0 0 1-6-6z" stroke="#5e5e5e" stroke-width="3" fill="#fff"/><use xlink:href="#k" transform="matrix(1,0,0,1,995,355) translate(32.925925925925924 55.70833333333333)"/><use xlink:href="#l" transform="matrix(1,0,0,1,995,355) translate(130.037037037037 55.70833333333333)"/><path d="M865.57 412.23a2.4 2.4 0 0 1 0-4.46l17.1-6.84a1.7 1.7 0 0 1 2.33 1.57 2.5 2.5 0 0 0 2.5 2.5h75a2.5 2.5 0 0 0 2.5-2.5 1.7 1.7 0 0 1 2.32-1.57l17.1 6.84a2.4 2.4 0 0 1 0 4.46l-17.1 6.84a1.7 1.7 0 0 1-2.32-1.57 2.5 2.5 0 0 0-2.5-2.5h-75a2.5 2.5 0 0 0-2.5 2.5 1.7 1.7 0 0 1-2.32 1.57zM960 177.17a6 6 0 0 1 6-6h58a6 6 0 0 1 6 6v84.33a6 6 0 0 1-6 6h-58a6 6 0 0 1-6-6z" stroke="#5e5e5e" stroke-width="3" fill="#fff"/><use xlink:href="#m" transform="matrix(1,0,0,1,972,183.16666666666669) translate(-0.3641975308641996 17.77777777777778)"/><use xlink:href="#n" transform="matrix(1,0,0,1,972,183.16666666666669) translate(-9.654320987654323 44.44444444444444)"/><use xlink:href="#o" transform="matrix(1,0,0,1,972,183.16666666666669) translate(16.82716049382716 71.11111111111111)"/><path d="M420 351.67a6 6 0 0 1 6-6h228a6 6 0 0 1 6 6v48a6 6 0 0 1-6 6H426a6 6 0 0 1-6-6z" stroke="#000" stroke-opacity="0" stroke-width="3" fill="#fff" fill-opacity="0"/><use xlink:href="#p" transform="matrix(1,0,0,1,425,350.6666666666667) translate(92.19135802469137 30.27777777777778)"/><path d="M420 406a6 6 0 0 1 6-6h228a6 6 0 0 1 6 6v48a6 6 0 0 1-6 6H426a6 6 0 0 1-6-6z" stroke="#000" stroke-opacity="0" stroke-width="3" fill="#fff" fill-opacity="0"/><use xlink:href="#p" transform="matrix(1,0,0,1,425,405) translate(92.19135802469137 30.27777777777778)"/><path d="M1065 181a6 6 0 0 1 6-6h58a6 6 0 0 1 6 6v92a6 6 0 0 1-6 6h-58a6 6 0 0 1-6-6z" stroke="#5e5e5e" stroke-width="3" fill="#fff"/><use xlink:href="#m" transform="matrix(1,0,0,1,1077,187) translate(-0.3641975308641996 17.77777777777778)"/><use xlink:href="#n" transform="matrix(1,0,0,1,1077,187) translate(-9.654320987654323 44.44444444444444)"/><use xlink:href="#q" transform="matrix(1,0,0,1,1077,187) translate(16.82716049382716 71.11111111111111)"/><path d="M1170 181a6 6 0 0 1 6-6h98a6 6 0 0 1 6 6v84.33a6 6 0 0 1-6 6h-98a6 6 0 0 1-6-6z" stroke="#5e5e5e" stroke-width="3" fill="#fff"/><use xlink:href="#r" transform="matrix(1,0,0,1,1182,187) translate(1.672839506172835 40.59027777777778)"/><path d="M995 270v32.75a6 6 0 0 0 6 6h26.33a6 6 0 0 1 6 6V330" stroke="#5e5e5e" stroke-width="2" fill="none"/><path d="M996 270.03h-2V269h2z" stroke="#5e5e5e" stroke-width=".05" fill="#5e5e5e"/><path d="M1033.33 345.26L1028.7 331h9.27z" stroke="#5e5e5e" stroke-width="2" fill="#5e5e5e"/><path d="M1225 273.83v30.84a6 6 0 0 1-6 6h-37a6 6 0 0 0-6 6V330" stroke="#5e5e5e" stroke-width="2" fill="none"/><path d="M1226 273.86h-2v-1.03h2z" stroke="#5e5e5e" stroke-width=".05" fill="#5e5e5e"/><path d="M1176 345.26l-4.63-14.26h9.27z" stroke="#5e5e5e" stroke-width="2" fill="#5e5e5e"/><path d="M1100 281.5V330" stroke="#5e5e5e" stroke-width="2" fill="none"/><path d="M1101 281.53h-2v-1.03h2z" stroke="#5e5e5e" stroke-width=".05" fill="#5e5e5e"/><path d="M1100 345.26l-4.63-14.26h9.27z" stroke="#5e5e5e" stroke-width="2" fill="#5e5e5e"/><path d="M800 356a6 6 0 0 1 6-6h228a6 6 0 0 1 6 6v48a6 6 0 0 1-6 6H806a6 6 0 0 1-6-6z" stroke="#000" stroke-opacity="0" stroke-width="3" fill="#fff" fill-opacity="0"/><use xlink:href="#a" transform="matrix(1,0,0,1,805,355) translate(86.69753086419753 30.27777777777778)"/><path d="M1020 566a6 6 0 0 1 6-6h148a6 6 0 0 1 6 6v108a6 6 0 0 1-6 6h-148a6 6 0 0 1-6-6z" stroke="#5e5e5e" stroke-width="3" fill="#fff"/><use xlink:href="#s" transform="matrix(1,0,0,1,1032,572) translate(31.111111111111114 36.33333333333333)"/><use xlink:href="#t" transform="matrix(1,0,0,1,1032,572) translate(4.481481481481488 68.33333333333333)"/><path d="M1091.52 465.37a2.4 2.4 0 0 1 4.46 0l6.84 17.1a1.7 1.7 0 0 1-1.57 2.33 2.5 2.5 0 0 0-2.5 2.5v45.34a2.5 2.5 0 0 0 2.5 2.5 1.7 1.7 0 0 1 1.57 2.32l-6.84 17.1a2.4 2.4 0 0 1-4.46 0l-6.84-17.1a1.7 1.7 0 0 1 1.57-2.32 2.5 2.5 0 0 0 2.5-2.5V487.3a2.5 2.5 0 0 0-2.5-2.5 1.7 1.7 0 0 1-1.57-2.32zM1348 540c6.63 0 12 13.43 12 30s-5.37 30-12 30h-96c-6.63 0-12-13.43-12-30s5.37-30 12-30z" stroke="#5e5e5e" stroke-width="3" fill="#fff"/><path d="M1348 600c-6.63 0-12-13.43-12-30s5.37-30 12-30" stroke="#5e5e5e" stroke-width="3" fill="none"/><use xlink:href="#u" transform="matrix(1,0,0,1,1245,545) translate(5.407407407407405 30.27777777777778)"/><use xlink:href="#o" transform="matrix(1,0,0,1,1245,545) translate(68.24691358024691 30.27777777777778)"/><path d="M1348 640c6.63 0 12 13.43 12 30s-5.37 30-12 30h-96c-6.63 0-12-13.43-12-30s5.37-30 12-30z" stroke="#5e5e5e" stroke-width="3" fill="#fff"/><path d="M1348 700c-6.63 0-12-13.43-12-30s5.37-30 12-30" stroke="#5e5e5e" stroke-width="3" fill="none"/><use xlink:href="#u" transform="matrix(1,0,0,1,1245,645) translate(5.407407407407405 30.27777777777778)"/><use xlink:href="#q" transform="matrix(1,0,0,1,1245,645) translate(68.24691358024691 30.27777777777778)"/><path d="M1182.5 589.33h21.5a6 6 0 0 0 6-6V576a6 6 0 0 1 6-6h4" stroke="#5e5e5e" stroke-width="2" fill="none"/><path d="M1182.53 590.33h-1.03v-2h1.03z" stroke="#5e5e5e" stroke-width=".05" fill="#5e5e5e"/><path d="M1235.26 570l-14.26 4.63v-9.26z" stroke="#5e5e5e" stroke-width="2" fill="#5e5e5e"/><path d="M1182.5 649.33h21.52a6 6 0 0 1 6 6v8a6 6 0 0 0 6 6h4.03" stroke="#5e5e5e" stroke-width="2" fill="none"/><path d="M1182.53 650.33h-1.03v-2h1.03z" stroke="#5e5e5e" stroke-width=".05" fill="#5e5e5e"/><path d="M1235.3 669.33l-14.25 4.64v-9.27z" stroke="#5e5e5e" stroke-width="2" fill="#5e5e5e"/><path d="M650 191a6 6 0 0 1 6-6h108a6 6 0 0 1 6 6v64.33a6 6 0 0 1-6 6H656a6 6 0 0 1-6-6z" stroke="#5e5e5e" stroke-width="3" fill="#fff"/><use xlink:href="#v" transform="matrix(1,0,0,1,655,190) translate(15.037037037037038 23.427083333333332)"/><use xlink:href="#w" transform="matrix(1,0,0,1,655,190) translate(18 55.42708333333333)"/><use xlink:href="#x" transform="matrix(1,0,0,1,655,190) translate(58 55.42708333333333)"/><path d="M710 263.83V320" stroke="#5e5e5e" stroke-width="2" fill="none"/><path d="M711 263.86h-2v-1.03h2z" stroke="#5e5e5e" stroke-width=".05" fill="#5e5e5e"/><path d="M710 335.26L705.37 321h9.26z" stroke="#5e5e5e" stroke-width="2" fill="#5e5e5e"/><path d="M555 496a6 6 0 0 1 6-6h228a6 6 0 0 1 6 6v48a6 6 0 0 1-6 6H561a6 6 0 0 1-6-6z" stroke="#000" stroke-opacity="0" stroke-width="3" fill="#fff" fill-opacity="0"/><g><use xlink:href="#y" transform="matrix(1,0,0,1,560,495) translate(86.69753086419753 30.27777777777778)"/></g><path d="M521 300h3m3.98 0h5.98m4 0h5.98m3.98 0h6m3.98 0h5.98m4 0h5.97m4 0h5.98m3.98 0h6m4 0h5.97m4 0h5.97m4 0h5.97m4 0h6m3.97 0h6m3.98 0h5.98m4 0h5.97m4 0h5.98m3.98 0h6m3.98 0h5.98m4 0h5.97m3.98 0h5.98m4 0h5.98m3.98 0h6m3.98 0h5.98m4 0h5.97m4 0h5.98m3.98 0h6m4 0h5.97m4 0h5.97m4 0h5.97m4 0h6m3.97 0h6m3.98 0h5.98m4 0h5.97m4 0h5.98m3.98 0h6m3.98 0h5.98m4 0h5.97m3.98 0h5.98m4 0h5.98m3.98 0h6m3.98 0h5.98m4 0h5.97m4 0h5.98m3.98 0h6m4 0h5.97m4 0h5.97m4 0h5.97m4 0h6m3.97 0h6m3.98 0h5.98m4 0h5.97m4 0h5.98m3.98 0h6m3.98 0h5.98m4 0h5.97m3.98 0h5.98m4 0h5.98m3.98 0h6m3.98 0h5.98m4 0h5.97m4 0h5.98m3.98 0h6m4 0h5.97m4 0h5.97m4 0h5.97m4 0h6m3.97 0h6m3.98 0h5.98m4 0h5.97m4 0h5.98m3.98 0h6m3.98 0h5.98m4 0h2.98M521.03 300H520M1238.97 300h1.03M520 301v3.02m0 4.03v6.05m0 4.02v6.05m0 4.03v6.04m0 4.03v6.05m0 4.02v6.05m0 4.02v6.04m0 4.03v6.03m0 4.03v6.05m0 4.04v6.04m0 4.03v6.05m0 4.03v6.05m0 4.03v6.04m0 4.03v6.04m0 4.03v6.05m0 4.03v6.04m0 4.03v6.04m0 4.02v6.05m0 4.03v6.04m0 4.03v6.04m0 4.04v6.05m0 4v6.06m0 4.03v6.03m0 4.03v6.05m0 4.03v6.05m0 4.03v6.05m0 4.03v6.04m0 4.03V576m0 4.03v6.04m0 4.03v6.04m0 4.03v6.05m0 4.03v6.04m0 4.02v6.04m0 4.03v6.04m0 4.03v6.04m0 4.04v6.04m0 4.03v6.06m0 4.02v6.05m0 4.03v6.04m0 4.03v6.05m0 4.02v6.05m0 4.03V714l.07.94.22.9.35.88m2.63 2.63l.87.36.9.23.95.07h3m4 0h6m4.02 0h6m4 0h6m4.02 0h6m4 0h6.02m4 0h6m4 0h6.02m4 0h6m4 0h6.02m4 0h6m4 0h6.02m4 0h6m4 0h6.02m4 0h6m4 0h6.02m4 0h6m4.02 0h6m4 0h6m4.02 0h6m4 0h6m4.02 0h6m4 0h6m4.02 0h6m4 0h6.02m4 0h6m4 0h6.02m4 0h6m4 0h6.02m4 0h6m4 0h6.02m4 0h6m4 0h6.02m4 0h6m4.02 0h6m4 0h6m4.02 0h6m4 0h6m4.02 0h3l.94-.07.9-.22.88-.35m2.63-2.63l.36-.87.23-.9.07-.95v-2.97m0-3.96v-5.95m0-3.96v-5.94m0-3.96v-5.95m0-3.95v-5.94m0-3.95v-5.95m0-3.96v-5.94m0-3.96v-5.94m0-3.97v-5.94m0-3.97v-5.94m0-3.98v-5.94m0-3.96v-5.94m0-3.97v-5.93m0-3.96v-5.93m0-3.97v-5.94m0-3.96v-5.94m0-3.97v-5.95m0-3.96v-5.95m0-3.96v-5.96m0-3.96v-5.94m0-3.96v-5.95m0-3.96V506l.08-.94.22-.9.35-.88m2.63-2.63l.87-.36.9-.23.95-.07h3m4 0h6.02m4 0h6.02m4 0h6.02m4 0h6.02m4 0h6.02m4 0h6.02m4 0h6.02m4 0h6.02m4 0h6.02m4 0h6m4.02 0h6m4.02 0h6m4.02 0h6m4.02 0h6m4.02 0h6m4 0h6.03m4 0h6.02m4 0h6.02m4 0h6.02m4 0h6.02m4 0h6.02m4 0h6.02m4 0h6.02m4 0h6.02m4 0h6.02m4 0h6m4.02 0h6m4.02 0h6m4.02 0h6m4.02 0h6m4.02 0h6m4 0h3.02M520 301.03V300M1238.97 500h1.03M1240 499v-2.97m0-3.96v-5.94m0-3.96v-5.94m0-3.96v-5.94m0-3.96v-5.94m0-3.96v-5.94m0-3.96v-5.94m0-3.96v-5.94m0-3.96v-5.94m0-3.96v-5.94m0-3.96v-5.94m0-3.96v-5.94m0-3.96v-5.94m0-3.96v-5.94m0-3.96v-5.94m0-3.96v-5.94m0-3.96v-5.94m0-3.96v-5.94m0-3.96v-5.94m0-3.96v-5.94m0-3.96V301M1240 498.97V500M1240 301.03V300" stroke="#5e5e5e" stroke-width="2" fill="none"/><defs><path fill="#333" d="M185-189c-5-48-123-54-124 2 14 75 158 14 163 119 3 78-121 87-175 55-17-10-28-26-33-46l33-7c5 56 141 63 141-1 0-78-155-14-162-118-5-82 145-84 179-34 5 7 8 16 11 25" id="z"/><path fill="#333" d="M100-194c63 0 86 42 84 106H49c0 40 14 67 53 68 26 1 43-12 49-29l28 8c-11 28-37 45-77 45C44 4 14-33 15-96c1-61 26-98 85-98zm52 81c6-60-76-77-97-28-3 7-6 17-6 28h103" id="A"/><path fill="#333" d="M114-163C36-179 61-72 57 0H25l-1-190h30c1 12-1 29 2 39 6-27 23-49 58-41v29" id="B"/><path fill="#333" d="M24-231v-30h32v30H24zM24 0v-190h32V0H24" id="C"/><path fill="#333" d="M141-36C126-15 110 5 73 4 37 3 15-17 15-53c-1-64 63-63 125-63 3-35-9-54-41-54-24 1-41 7-42 31l-33-3c5-37 33-52 76-52 45 0 72 20 72 64v82c-1 20 7 32 28 27v20c-31 9-61-2-59-35zM48-53c0 20 12 33 32 33 41-3 63-29 60-74-43 2-92-5-92 41" id="D"/><path fill="#333" d="M24 0v-261h32V0H24" id="E"/><g id="a"><use transform="matrix(0.06172839506172839,0,0,0.06172839506172839,0,0)" xlink:href="#z"/><use transform="matrix(0.06172839506172839,0,0,0.06172839506172839,14.814814814814813,0)" xlink:href="#A"/><use transform="matrix(0.06172839506172839,0,0,0.06172839506172839,27.160493827160494,0)" xlink:href="#B"/><use transform="matrix(0.06172839506172839,0,0,0.06172839506172839,34.50617283950617,0)" xlink:href="#C"/><use transform="matrix(0.06172839506172839,0,0,0.06172839506172839,39.382716049382715,0)" xlink:href="#D"/><use transform="matrix(0.06172839506172839,0,0,0.06172839506172839,51.72839506172839,0)" xlink:href="#E"/></g><path fill="#333" d="M24-248c93 1 206-16 204 79-1 75-69 88-152 82V0H24v-248zm52 121c47 0 100 7 100-41 0-47-54-39-100-39v80" id="F"/><path fill="#333" d="M135-150c-39-12-60 13-60 57V0H25l-1-190h47c2 13-1 29 3 40 6-28 27-53 61-41v41" id="G"/><path fill="#333" d="M185-48c-13 30-37 53-82 52C43 2 14-33 14-96s30-98 90-98c62 0 83 45 84 108H66c0 31 8 55 39 56 18 0 30-7 34-22zm-45-69c5-46-57-63-70-21-2 6-4 13-4 21h74" id="H"/><path fill="#333" d="M137-138c1-29-70-34-71-4 15 46 118 7 119 86 1 83-164 76-172 9l43-7c4 19 20 25 44 25 33 8 57-30 24-41C81-84 22-81 20-136c-2-80 154-74 161-7" id="I"/><path fill="#333" d="M85 4C-2 5 27-109 22-190h50c7 57-23 150 33 157 60-5 35-97 40-157h50l1 190h-47c-2-12 1-28-3-38-12 25-28 42-61 42" id="J"/><g id="b"><use transform="matrix(0.07407407407407407,0,0,0.07407407407407407,0,0)" xlink:href="#F"/><use transform="matrix(0.07407407407407407,0,0,0.07407407407407407,17.77777777777778,0)" xlink:href="#G"/><use transform="matrix(0.07407407407407407,0,0,0.07407407407407407,28.148148148148152,0)" xlink:href="#H"/><use transform="matrix(0.07407407407407407,0,0,0.07407407407407407,42.96296296296296,0)" xlink:href="#I"/><use transform="matrix(0.07407407407407407,0,0,0.07407407407407407,57.77777777777777,0)" xlink:href="#I"/><use transform="matrix(0.07407407407407407,0,0,0.07407407407407407,72.59259259259258,0)" xlink:href="#J"/><use transform="matrix(0.07407407407407407,0,0,0.07407407407407407,88.81481481481481,0)" xlink:href="#G"/><use transform="matrix(0.07407407407407407,0,0,0.07407407407407407,99.18518518518518,0)" xlink:href="#H"/></g><path fill="#333" d="M169-182c-1-43-94-46-97-3 18 66 151 10 154 114 3 95-165 93-204 36-6-8-10-19-12-30l50-8c3 46 112 56 116 5-17-69-150-10-154-114-4-87 153-88 188-35 5 8 8 18 10 28" id="K"/><path fill="#333" d="M135-194c87-1 58 113 63 194h-50c-7-57 23-157-34-157-59 0-34 97-39 157H25l-1-190h47c2 12-1 28 3 38 12-26 28-41 61-42" id="L"/><path fill="#333" d="M110-194c64 0 96 36 96 99 0 64-35 99-97 99-61 0-95-36-95-99 0-62 34-99 96-99zm-1 164c35 0 45-28 45-65 0-40-10-65-43-65-34 0-45 26-45 65 0 36 10 65 43 65" id="M"/><g id="c"><use transform="matrix(0.07407407407407407,0,0,0.07407407407407407,0,0)" xlink:href="#K"/><use transform="matrix(0.07407407407407407,0,0,0.07407407407407407,17.77777777777778,0)" xlink:href="#H"/><use transform="matrix(0.07407407407407407,0,0,0.07407407407407407,32.592592592592595,0)" xlink:href="#L"/><use transform="matrix(0.07407407407407407,0,0,0.07407407407407407,48.814814814814824,0)" xlink:href="#I"/><use transform="matrix(0.07407407407407407,0,0,0.07407407407407407,63.62962962962963,0)" xlink:href="#M"/><use transform="matrix(0.07407407407407407,0,0,0.07407407407407407,79.85185185185185,0)" xlink:href="#G"/></g><path fill="#333" d="M24 0v-248h52v208h133V0H24" id="N"/><path fill="#333" d="M133-34C117-15 103 5 69 4 32 3 11-16 11-54c-1-60 55-63 116-61 1-26-3-47-28-47-18 1-26 9-28 27l-52-2c7-38 36-58 82-57s74 22 75 68l1 82c-1 14 12 18 25 15v27c-30 8-71 5-69-32zm-48 3c29 0 43-24 42-57-32 0-66-3-65 30 0 17 8 27 23 27" id="O"/><path fill="#333" d="M88-194c31-1 46 15 58 34l-1-101h50l1 261h-48c-2-10 0-23-3-31C134-8 116 4 84 4 32 4 16-41 15-95c0-56 19-97 73-99zm17 164c33 0 40-30 41-66 1-37-9-64-41-64s-38 30-39 65c0 43 13 65 39 65" id="P"/><g id="d"><use transform="matrix(0.07407407407407404,0,0,0.07407407407407404,0,0)" xlink:href="#N"/><use transform="matrix(0.07407407407407404,0,0,0.07407407407407404,16.222222222222214,0)" xlink:href="#M"/><use transform="matrix(0.07407407407407404,0,0,0.07407407407407404,32.44444444444443,0)" xlink:href="#O"/><use transform="matrix(0.07407407407407404,0,0,0.07407407407407404,47.25925925925924,0)" xlink:href="#P"/></g><path fill="#333" d="M67-125c0 53 21 87 73 88 37 1 54-22 65-47l45 17C233-25 199 4 140 4 58 4 20-42 15-125 8-235 124-281 211-232c18 10 29 29 36 50l-46 12c-8-25-30-41-62-41-52 0-71 34-72 86" id="Q"/><path fill="#333" d="M25 0v-261h50V0H25" id="R"/><g id="e"><use transform="matrix(0.07407407407407404,0,0,0.07407407407407404,0,0)" xlink:href="#Q"/><use transform="matrix(0.07407407407407404,0,0,0.07407407407407404,19.185185185185176,0)" xlink:href="#H"/><use transform="matrix(0.07407407407407404,0,0,0.07407407407407404,33.999999999999986,0)" xlink:href="#R"/><use transform="matrix(0.07407407407407404,0,0,0.07407407407407404,41.40740740740739,0)" xlink:href="#R"/></g><path fill="#333" d="M240-174c0 40-23 61-54 70L253 0h-59l-57-94H76V0H24v-248c93 4 217-23 216 74zM76-134c48-2 112 12 112-38 0-48-66-32-112-35v73" id="S"/><path fill="#333" d="M135-194c53 0 70 44 70 98 0 56-19 98-73 100-31 1-45-17-59-34 3 33 2 69 2 105H25l-1-265h48c2 10 0 23 3 31 11-24 29-35 60-35zM114-30c33 0 39-31 40-66 0-38-9-64-40-64-56 0-55 130 0 130" id="T"/><path fill="#333" d="M135-194c52 0 70 43 70 98 0 56-19 99-73 100-30 1-46-15-58-35L72 0H24l1-261h50v104c11-23 29-37 60-37zM114-30c31 0 40-27 40-66 0-37-7-63-39-63s-41 28-41 65c0 36 8 64 40 64" id="U"/><path fill="#333" d="M123 10C108 53 80 86 19 72V37c35 8 53-11 59-39L3-190h52l48 148c12-52 28-100 44-148h51" id="V"/><g id="f"><use transform="matrix(0.07407407407407407,0,0,0.07407407407407407,0,0)" xlink:href="#S"/><use transform="matrix(0.07407407407407407,0,0,0.07407407407407407,19.185185185185183,0)" xlink:href="#O"/><use transform="matrix(0.07407407407407407,0,0,0.07407407407407407,34,0)" xlink:href="#I"/><use transform="matrix(0.07407407407407407,0,0,0.07407407407407407,48.81481481481481,0)" xlink:href="#T"/><use transform="matrix(0.07407407407407407,0,0,0.07407407407407407,65.03703703703704,0)" xlink:href="#U"/><use transform="matrix(0.07407407407407407,0,0,0.07407407407407407,81.25925925925927,0)" xlink:href="#H"/><use transform="matrix(0.07407407407407407,0,0,0.07407407407407407,96.07407407407406,0)" xlink:href="#G"/><use transform="matrix(0.07407407407407407,0,0,0.07407407407407407,106.44444444444444,0)" xlink:href="#G"/><use transform="matrix(0.07407407407407407,0,0,0.07407407407407407,116.81481481481481,0)" xlink:href="#V"/></g><path fill="#333" d="M25-224v-37h50v37H25zM25 0v-190h50V0H25" id="W"/><g id="g"><use transform="matrix(0.07407407407407407,0,0,0.07407407407407407,0,0)" xlink:href="#F"/><use transform="matrix(0.07407407407407407,0,0,0.07407407407407407,17.77777777777778,0)" xlink:href="#W"/></g><path fill="#333" d="M165-50V0h-47v-50H5v-38l105-160h55v161h33v37h-33zm-47-37l2-116L46-87h72" id="X"/><path fill="#333" d="M24 0v-54h51V0H24" id="Y"/><path fill="#333" d="M101-251c68 0 84 54 84 127C185-50 166 4 99 4S15-52 14-124c-1-75 17-127 87-127zm-1 216c37-5 36-46 36-89s4-89-36-89c-39 0-36 45-36 89 0 43-3 85 36 89" id="Z"/><g id="h"><use transform="matrix(0.07407407407407407,0,0,0.07407407407407407,0,0)" xlink:href="#X"/><use transform="matrix(0.07407407407407407,0,0,0.07407407407407407,14.814814814814813,0)" xlink:href="#Y"/><use transform="matrix(0.07407407407407407,0,0,0.07407407407407407,22.22222222222222,0)" xlink:href="#Z"/></g><path fill="#333" d="M136-208V0H84v-208H4v-40h212v40h-80" id="aa"/><path fill="#333" d="M190-63c-7 42-38 67-86 67-59 0-84-38-90-98-12-110 154-137 174-36l-49 2c-2-19-15-32-35-32-30 0-35 28-38 64-6 74 65 87 74 30" id="ab"/><path fill="#333" d="M114-157C55-157 80-60 75 0H25v-261h50l-1 109c12-26 28-41 61-42 86-1 58 113 63 194h-50c-7-57 23-157-34-157" id="ac"/><g id="i"><use transform="matrix(0.07407407407407407,0,0,0.07407407407407407,0,0)" xlink:href="#aa"/><use transform="matrix(0.07407407407407407,0,0,0.07407407407407407,14.222222222222221,0)" xlink:href="#M"/><use transform="matrix(0.07407407407407407,0,0,0.07407407407407407,30.444444444444443,0)" xlink:href="#J"/><use transform="matrix(0.07407407407407407,0,0,0.07407407407407407,46.666666666666664,0)" xlink:href="#ab"/><use transform="matrix(0.07407407407407407,0,0,0.07407407407407407,61.48148148148148,0)" xlink:href="#ac"/></g><path fill="#333" d="M24-248c120-7 223 5 221 122C244-46 201 0 124 0H24v-248zM76-40c74 7 117-18 117-86 0-67-45-88-117-82v168" id="ad"/><g id="j"><use transform="matrix(0.07407407407407407,0,0,0.07407407407407407,0,0)" xlink:href="#ad"/><use transform="matrix(0.07407407407407407,0,0,0.07407407407407407,19.185185185185183,0)" xlink:href="#W"/><use transform="matrix(0.07407407407407407,0,0,0.07407407407407407,26.592592592592588,0)" xlink:href="#I"/><use transform="matrix(0.07407407407407407,0,0,0.07407407407407407,41.407407407407405,0)" xlink:href="#T"/><use transform="matrix(0.07407407407407407,0,0,0.07407407407407407,57.629629629629626,0)" xlink:href="#R"/><use transform="matrix(0.07407407407407407,0,0,0.07407407407407407,65.03703703703704,0)" xlink:href="#O"/><use transform="matrix(0.07407407407407407,0,0,0.07407407407407407,79.85185185185185,0)" xlink:href="#V"/></g><g id="k"><use transform="matrix(0.07407407407407407,0,0,0.07407407407407407,0,0)" xlink:href="#aa"/><use transform="matrix(0.07407407407407407,0,0,0.07407407407407407,14.222222222222221,0)" xlink:href="#H"/><use transform="matrix(0.07407407407407407,0,0,0.07407407407407407,29.037037037037035,0)" xlink:href="#H"/><use transform="matrix(0.07407407407407407,0,0,0.07407407407407407,43.85185185185185,0)" xlink:href="#L"/><use transform="matrix(0.07407407407407407,0,0,0.07407407407407407,60.07407407407407,0)" xlink:href="#I"/><use transform="matrix(0.07407407407407407,0,0,0.07407407407407407,74.88888888888889,0)" xlink:href="#V"/></g><path fill="#333" d="M128-127c34 4 56 21 59 58 7 91-148 94-172 28-4-9-6-17-7-26l51-5c1 24 16 35 40 36 23 0 39-12 38-36-1-31-31-36-65-34v-40c32 2 59-3 59-33 0-20-13-33-34-33s-33 13-35 32l-50-3c6-44 37-68 86-68 50 0 83 20 83 66 0 35-22 52-53 58" id="ae"/><path fill="#333" d="M182-182c0 78-84 86-111 141h115V0H12c-6-101 99-100 120-180 1-22-12-31-33-32-23 0-32 14-35 34l-49-3c5-45 32-70 84-70 51 0 83 22 83 69" id="af"/><g id="l"><use transform="matrix(0.07407407407407407,0,0,0.07407407407407407,0,0)" xlink:href="#ae"/><use transform="matrix(0.07407407407407407,0,0,0.07407407407407407,14.814814814814813,0)" xlink:href="#Y"/><use transform="matrix(0.07407407407407407,0,0,0.07407407407407407,22.22222222222222,0)" xlink:href="#af"/></g><path fill="#333" d="M30 0v-248h33v221h125V0H30" id="ag"/><path fill="#333" d="M210-169c-67 3-38 105-44 169h-31v-121c0-29-5-50-35-48C34-165 62-65 56 0H25l-1-190h30c1 10-1 24 2 32 10-44 99-50 107 0 11-21 27-35 58-36 85-2 47 119 55 194h-31v-121c0-29-5-49-35-48" id="ah"/><path fill="#333" d="M59-47c-2 24 18 29 38 22v24C64 9 27 4 27-40v-127H5v-23h24l9-43h21v43h35v23H59v120" id="ai"/><g id="m"><use transform="matrix(0.06172839506172839,0,0,0.06172839506172839,0,0)" xlink:href="#ag"/><use transform="matrix(0.06172839506172839,0,0,0.06172839506172839,12.345679012345679,0)" xlink:href="#C"/><use transform="matrix(0.06172839506172839,0,0,0.06172839506172839,17.22222222222222,0)" xlink:href="#ah"/><use transform="matrix(0.06172839506172839,0,0,0.06172839506172839,35.67901234567901,0)" xlink:href="#C"/><use transform="matrix(0.06172839506172839,0,0,0.06172839506172839,40.55555555555556,0)" xlink:href="#ai"/></g><path fill="#333" d="M206 0h-36l-40-164L89 0H53L-1-190h32L70-26l43-164h34l41 164 42-164h31" id="aj"/><path fill="#333" d="M96-169c-40 0-48 33-48 73s9 75 48 75c24 0 41-14 43-38l32 2c-6 37-31 61-74 61-59 0-76-41-82-99-10-93 101-131 147-64 4 7 5 14 7 22l-32 3c-4-21-16-35-41-35" id="ak"/><path fill="#333" d="M106-169C34-169 62-67 57 0H25v-261h32l-1 103c12-21 28-36 61-36 89 0 53 116 60 194h-32v-121c2-32-8-49-39-48" id="al"/><g id="n"><use transform="matrix(0.06172839506172839,0,0,0.06172839506172839,0,0)" xlink:href="#z"/><use transform="matrix(0.06172839506172839,0,0,0.06172839506172839,14.814814814814813,0)" xlink:href="#aj"/><use transform="matrix(0.06172839506172839,0,0,0.06172839506172839,30.80246913580247,0)" xlink:href="#C"/><use transform="matrix(0.06172839506172839,0,0,0.06172839506172839,35.67901234567901,0)" xlink:href="#ai"/><use transform="matrix(0.06172839506172839,0,0,0.06172839506172839,41.851851851851855,0)" xlink:href="#ak"/><use transform="matrix(0.06172839506172839,0,0,0.06172839506172839,52.96296296296296,0)" xlink:href="#al"/></g><path fill="#333" d="M27 0v-27h64v-190l-56 39v-29l58-41h29v221h61V0H27" id="am"/><use transform="matrix(0.06172839506172839,0,0,0.06172839506172839,0,0)" xlink:href="#am" id="o"/><path fill="#333" d="M232-93c-1 65-40 97-104 97C67 4 28-28 28-90v-158h33c8 89-33 224 67 224 102 0 64-133 71-224h33v155" id="an"/><path fill="#333" d="M160-131c35 5 61 23 61 61C221 17 115-2 30 0v-248c76 3 177-17 177 60 0 33-19 50-47 57zm-97-11c50-1 110 9 110-42 0-47-63-36-110-37v79zm0 115c55-2 124 14 124-45 0-56-70-42-124-44v89" id="ao"/><g id="p"><use transform="matrix(0.06172839506172839,0,0,0.06172839506172839,0,0)" xlink:href="#an"/><use transform="matrix(0.06172839506172839,0,0,0.06172839506172839,15.987654320987653,0)" xlink:href="#z"/><use transform="matrix(0.06172839506172839,0,0,0.06172839506172839,30.80246913580247,0)" xlink:href="#ao"/></g><path fill="#333" d="M101-251c82-7 93 87 43 132L82-64C71-53 59-42 53-27h129V0H18c2-99 128-94 128-182 0-28-16-43-45-43s-46 15-49 41l-32-3c6-41 34-60 81-64" id="ap"/><use transform="matrix(0.06172839506172839,0,0,0.06172839506172839,0,0)" xlink:href="#ap" id="q"/><path fill="#333" d="M30 0v-248h187v28H63v79h144v27H63v87h162V0H30" id="aq"/><path fill="#333" d="M117-194c89-4 53 116 60 194h-32v-121c0-31-8-49-39-48C34-167 62-67 57 0H25l-1-190h30c1 10-1 24 2 32 11-22 29-35 61-36" id="ar"/><path fill="#333" d="M100-194c62-1 85 37 85 99 1 63-27 99-86 99S16-35 15-95c0-66 28-99 85-99zM99-20c44 1 53-31 53-75 0-43-8-75-51-75s-53 32-53 75 10 74 51 75" id="as"/><path fill="#333" d="M85-194c31 0 48 13 60 33l-1-100h32l1 261h-30c-2-10 0-23-3-31C134-8 116 4 85 4 32 4 16-35 15-94c0-66 23-100 70-100zm9 24c-40 0-46 34-46 75 0 40 6 74 45 74 42 0 51-32 51-76 0-42-9-74-50-73" id="at"/><g id="r"><use transform="matrix(0.06172839506172839,0,0,0.06172839506172839,0,0)" xlink:href="#aq"/><use transform="matrix(0.06172839506172839,0,0,0.06172839506172839,14.814814814814813,0)" xlink:href="#ar"/><use transform="matrix(0.06172839506172839,0,0,0.06172839506172839,27.160493827160494,0)" xlink:href="#ak"/><use transform="matrix(0.06172839506172839,0,0,0.06172839506172839,38.27160493827161,0)" xlink:href="#as"/><use transform="matrix(0.06172839506172839,0,0,0.06172839506172839,50.617283950617285,0)" xlink:href="#at"/><use transform="matrix(0.06172839506172839,0,0,0.06172839506172839,62.96296296296296,0)" xlink:href="#A"/><use transform="matrix(0.06172839506172839,0,0,0.06172839506172839,75.30864197530865,0)" xlink:href="#B"/></g><path fill="#333" d="M230 0l2-204L168 0h-37L68-204 70 0H24v-248h70l56 185 57-185h69V0h-46" id="au"/><path fill="#333" d="M115-3C79 11 28 4 28-45v-112H4v-33h27l15-45h31v45h36v33H77v99c-1 23 16 31 38 25v30" id="av"/><g id="s"><use transform="matrix(0.07407407407407407,0,0,0.07407407407407407,0,0)" xlink:href="#au"/><use transform="matrix(0.07407407407407407,0,0,0.07407407407407407,22.148148148148145,0)" xlink:href="#M"/><use transform="matrix(0.07407407407407407,0,0,0.07407407407407407,38.37037037037037,0)" xlink:href="#av"/><use transform="matrix(0.07407407407407407,0,0,0.07407407407407407,47.18518518518518,0)" xlink:href="#M"/><use transform="matrix(0.07407407407407407,0,0,0.07407407407407407,63.407407407407405,0)" xlink:href="#G"/></g><g id="t"><use transform="matrix(0.07407407407407407,0,0,0.07407407407407407,0,0)" xlink:href="#Q"/><use transform="matrix(0.07407407407407407,0,0,0.07407407407407407,19.185185185185183,0)" xlink:href="#M"/><use transform="matrix(0.07407407407407407,0,0,0.07407407407407407,35.407407407407405,0)" xlink:href="#L"/><use transform="matrix(0.07407407407407407,0,0,0.07407407407407407,51.629629629629626,0)" xlink:href="#av"/><use transform="matrix(0.07407407407407407,0,0,0.07407407407407407,60.44444444444444,0)" xlink:href="#G"/><use transform="matrix(0.07407407407407407,0,0,0.07407407407407407,70.81481481481481,0)" xlink:href="#M"/><use transform="matrix(0.07407407407407407,0,0,0.07407407407407407,87.03703703703704,0)" xlink:href="#R"/><use transform="matrix(0.07407407407407407,0,0,0.07407407407407407,94.44444444444444,0)" xlink:href="#R"/><use transform="matrix(0.07407407407407407,0,0,0.07407407407407407,101.85185185185185,0)" xlink:href="#H"/><use transform="matrix(0.07407407407407407,0,0,0.07407407407407407,116.66666666666666,0)" xlink:href="#G"/></g><path fill="#333" d="M240 0l2-218c-23 76-54 145-80 218h-23L58-218 59 0H30v-248h44l77 211c21-75 51-140 76-211h43V0h-30" id="aw"/><g id="u"><use transform="matrix(0.06172839506172839,0,0,0.06172839506172839,0,0)" xlink:href="#aw"/><use transform="matrix(0.06172839506172839,0,0,0.06172839506172839,18.456790123456788,0)" xlink:href="#as"/><use transform="matrix(0.06172839506172839,0,0,0.06172839506172839,30.80246913580247,0)" xlink:href="#ai"/><use transform="matrix(0.06172839506172839,0,0,0.06172839506172839,36.97530864197531,0)" xlink:href="#as"/><use transform="matrix(0.06172839506172839,0,0,0.06172839506172839,49.32098765432099,0)" xlink:href="#B"/></g><path fill="#333" d="M231 0h-52l-39-155L100 0H48L-1-190h46L77-45c9-52 24-97 36-145h53l37 145 32-145h46" id="ax"/><g id="v"><use transform="matrix(0.07407407407407407,0,0,0.07407407407407407,0,0)" xlink:href="#F"/><use transform="matrix(0.07407407407407407,0,0,0.07407407407407407,17.77777777777778,0)" xlink:href="#M"/><use transform="matrix(0.07407407407407407,0,0,0.07407407407407407,34,0)" xlink:href="#ax"/><use transform="matrix(0.07407407407407407,0,0,0.07407407407407407,54.74074074074074,0)" xlink:href="#H"/><use transform="matrix(0.07407407407407407,0,0,0.07407407407407407,69.55555555555556,0)" xlink:href="#G"/></g><path fill="#333" d="M139-81c0-46-55-55-73-27H18l9-140h149v37H72l-4 63c44-38 133-4 122 66C201 21 21 35 11-62l49-4c5 18 15 30 39 30 26 0 40-18 40-45" id="ay"/><path fill="#333" d="M147 0H94L2-248h55l64 206c17-72 42-137 63-206h54" id="az"/><g id="w"><use transform="matrix(0.07407407407407407,0,0,0.07407407407407407,0,0)" xlink:href="#ay"/><use transform="matrix(0.07407407407407407,0,0,0.07407407407407407,14.814814814814813,0)" xlink:href="#az"/></g><path fill="#333" d="M199 0l-22-63H83L61 0H9l90-248h61L250 0h-51zm-33-102l-36-108c-10 38-24 72-36 108h72" id="aA"/><g id="x"><use transform="matrix(0.07407407407407407,0,0,0.07407407407407407,0,0)" xlink:href="#ae"/><use transform="matrix(0.07407407407407407,0,0,0.07407407407407407,14.814814814814813,0)" xlink:href="#aA"/></g><path fill="#333" d="M197 0v-115H63V0H30v-248h33v105h134v-105h34V0h-34" id="aB"/><path fill="#333" d="M30-248c118-7 216 8 213 122C240-48 200 0 122 0H30v-248zM63-27c89 8 146-16 146-99s-60-101-146-95v194" id="aC"/><path fill="#333" d="M33 0v-248h34V0H33" id="aD"/><g id="y"><use transform="matrix(0.06172839506172839,0,0,0.06172839506172839,0,0)" xlink:href="#aB"/><use transform="matrix(0.06172839506172839,0,0,0.06172839506172839,15.987654320987653,0)" xlink:href="#aC"/><use transform="matrix(0.06172839506172839,0,0,0.06172839506172839,31.975308641975307,0)" xlink:href="#aw"/><use transform="matrix(0.06172839506172839,0,0,0.06172839506172839,50.432098765432094,0)" xlink:href="#aD"/></g></defs></g></svg>